<svg width="14" height="25" viewBox="0 0 14 25" fill="none" xmlns="http://www.w3.org/2000/svg">
<path d="M1.37508 11.9023L10.7497 2.52767C11.2673 2.00998 12.1067 2.00998 12.6244 2.52767C13.1421 3.04536 13.1421 3.8847 12.6244 4.40239L3.2498 13.777C2.73211 14.2947 1.89277 14.2947 1.37508 13.777C0.857394 13.2593 0.857394 12.42 1.37508 11.9023Z" fill="black"/>
<path d="M3.24931 11.9027L12.6249 21.2783C13.1426 21.796 13.1426 22.6354 12.6249 23.153C12.1073 23.6707 11.2679 23.6707 10.7502 23.153L1.3746 13.7774C0.856905 13.2597 0.856906 12.4204 1.3746 11.9027C1.89229 11.385 2.73163 11.385 3.24931 11.9027Z" fill="black"/>
</svg>
