<svg width="24" height="25" viewBox="0 0 24 25" fill="none" xmlns="http://www.w3.org/2000/svg">
<g clip-path="url(#clip0_380_21)">
<path d="M0.9 24.5601C0.4 24.5601 0 24.1601 0 23.6601V20.0601C0 19.2601 0.2 18.4601 0.5 17.6601C0.8 16.8601 1.3 16.2601 1.9 15.6601C3.1 14.4601 4.7 13.8601 6.4 13.8601H17.5C19.2 13.8601 20.8 14.4601 22 15.6601C22.6 16.2601 23.1 16.8601 23.4 17.6601C23.7 18.4601 23.9 19.2601 23.9 20.0601V23.6601C23.9 24.1601 23.5 24.5601 23 24.5601C22.5 24.5601 22.1 24.1601 22.1 23.6601V20.0601C22.1 19.4601 22 18.9601 21.8 18.3601C21.6 17.8601 21.2 17.3601 20.8 16.9601C19.9 16.1601 18.7 15.6601 17.5 15.6601H6.5C5.3 15.6601 4.1 16.1601 3.2 16.9601C2.8 17.3601 2.4 17.8601 2.2 18.3601C2 18.8601 1.9 19.4601 1.9 20.0601V23.6601C1.8 24.1601 1.4 24.5601 0.9 24.5601Z" fill="#010101"/>
<path d="M11.8992 12.66C11.0992 12.66 10.2992 12.46 9.59922 12.16C8.89922 11.86 8.19922 11.46 7.59922 10.86C6.99922 10.26 6.59922 9.65996 6.29922 8.85996C5.89922 8.15996 5.69922 7.35996 5.69922 6.55996C5.69922 5.35996 6.09922 4.15996 6.69922 3.15996C7.39922 2.15996 8.29922 1.35996 9.49922 0.959961C10.5992 0.459961 11.7992 0.359961 12.9992 0.659961C14.1992 0.859961 15.2992 1.45996 16.0992 2.25996C16.9992 3.05996 17.5992 4.15996 17.7992 5.35996C18.0992 6.55996 17.9992 7.75996 17.5992 8.85996C17.0992 9.95996 16.2992 10.86 15.2992 11.56C14.2992 12.26 13.0992 12.66 11.8992 12.66ZM11.8992 2.35996C11.2992 2.35996 10.7992 2.45996 10.1992 2.65996C9.39922 2.95996 8.69922 3.55996 8.29922 4.25996C7.79922 4.95996 7.49922 5.75996 7.49922 6.55996C7.49922 7.15996 7.59922 7.65996 7.79922 8.15996C7.99922 8.65996 8.29922 9.15996 8.69922 9.55996C9.09922 9.95996 9.59922 10.26 10.0992 10.46C11.3992 10.96 12.9992 10.86 14.1992 10.06C14.8992 9.55996 15.4992 8.95996 15.7992 8.15996C16.0992 7.35996 16.1992 6.55996 15.9992 5.75996C15.9992 4.95996 15.5992 4.15996 14.9992 3.55996C14.3992 2.95996 13.5992 2.55996 12.7992 2.35996C12.3992 2.35996 12.1992 2.35996 11.8992 2.35996Z" fill="#010101"/>
</g>
<defs>
<clipPath id="clip0_380_21">
<rect width="24" height="24" fill="white" transform="translate(0 0.560059)"/>
</clipPath>
</defs>
</svg>
