<svg width="24" height="25" viewBox="0 0 24 25" fill="none" xmlns="http://www.w3.org/2000/svg">
<path d="M23.7008 23.0602L18.9008 18.2602C22.5008 14.0602 22.3008 7.76016 18.3008 3.76016C16.2008 1.66016 13.5008 0.660156 10.8008 0.660156C8.10078 0.660156 5.30078 1.66016 3.20078 3.76016C-0.999219 7.96016 -0.999219 14.6602 3.20078 18.8602C5.30078 20.9602 8.00078 21.9602 10.8008 21.9602C13.3008 21.9602 15.7008 21.0602 17.7008 19.3602L22.5008 24.1602C22.6008 24.2602 22.9008 24.3602 23.1008 24.3602C23.3008 24.3602 23.5008 24.2602 23.7008 24.0602C24.0008 23.9602 24.0008 23.3602 23.7008 23.0602ZM4.50078 17.6602C2.80078 15.9602 1.90078 13.7602 1.90078 11.3602C1.90078 8.96016 2.80078 6.76016 4.50078 4.96016C6.20078 3.26016 8.40078 2.36016 10.8008 2.36016C13.2008 2.36016 15.4008 3.26016 17.1008 4.96016C18.8008 6.66016 19.7008 8.96016 19.7008 11.3602C19.7008 13.7602 18.8008 15.9602 17.1008 17.7602C15.4008 19.4602 13.1008 20.3602 10.8008 20.3602C8.40078 20.3602 6.20078 19.3602 4.50078 17.6602Z" fill="#010101"/>
<path d="M23.1 24.5602C22.9 24.5602 22.6 24.4602 22.5 24.3602L17.7 19.5602C15.8 21.1602 13.3 22.0602 10.8 22.0602C8 22.0602 5.2 20.9602 3.2 18.9602C1.2 16.9602 0 14.2602 0 11.3602C0 8.46016 1.1 5.76016 3.2 3.76016C5.2 1.76016 7.9 0.660156 10.8 0.660156C13.6 0.660156 16.4 1.76016 18.4 3.76016C20.3 5.66016 21.4 8.26016 21.6 10.9602C21.7 13.6602 20.8 16.2602 19.1 18.2602L23.9 23.0602C24.2 23.4602 24.2 23.9602 23.8 24.2602C23.5 24.4602 23.3 24.5602 23.1 24.5602ZM17.7 19.4602L22.5 24.2602C22.6 24.3602 22.8 24.4602 23 24.4602C23.2 24.4602 23.4 24.3602 23.6 24.2602C23.9 23.9602 23.9 23.4602 23.6 23.1602L18.8 18.3602C20.5 16.3602 21.4 13.7602 21.3 11.0602C21.2 8.36016 20.1 5.86016 18.2 3.96016C16.3 1.96016 13.5 0.860156 10.7 0.860156C8 0.660156 5.3 1.86016 3.3 3.86016C1.3 5.86016 0.2 8.56016 0.2 11.3602C0.2 14.1602 1.3 16.8602 3.3 18.8602C5.3 20.8602 8 21.9602 10.8 21.9602C13.3 21.9602 15.8 21.0602 17.7 19.4602ZM10.8 20.3602C8.4 20.3602 6.1 19.4602 4.4 17.6602C2.7 16.0602 1.8 13.7602 1.8 11.3602C1.8 8.96016 2.7 6.66016 4.4 4.96016C6.1 3.26016 8.4 2.36016 10.8 2.36016C13.2 2.36016 15.5 3.26016 17.2 4.96016C18.9 6.66016 19.8 8.96016 19.8 11.3602C19.8 13.7602 18.9 16.0602 17.2 17.7602C15.5 19.4602 13.2 20.3602 10.8 20.3602ZM4.5 17.6602C6.2 19.3602 8.4 20.2602 10.8 20.2602C13.2 20.2602 15.4 19.3602 17.1 17.6602C18.8 15.9602 19.7 13.6602 19.7 11.3602C19.7 9.06016 18.8 6.76016 17.1 5.06016C15.4 3.36016 13.2 2.46016 10.8 2.46016C8.4 2.46016 6.2 3.36016 4.5 5.06016C2.8 6.76016 1.9 9.06016 1.9 11.3602C1.9 13.7602 2.8 15.9602 4.5 17.6602Z" fill="#010101"/>
</svg>
