<svg width="24" height="25" viewBox="0 0 24 25" fill="none" xmlns="http://www.w3.org/2000/svg">
<g clip-path="url(#clip0_380_37)">
<path d="M9.601 18.3227C8.92465 18.3101 8.2754 18.0547 7.77176 17.603C7.24926 17.1465 6.8969 16.5263 6.77218 15.8438L5.07289 7.03744C5.07289 7.03744 5.07289 6.97746 5.07289 6.95747L4.19325 2.43936H0.914619C0.672047 2.43936 0.43941 2.34299 0.267886 2.17147C0.0963614 1.99995 0 1.76731 0 1.52474C0 1.28216 0.0963614 1.04953 0.267886 0.878004C0.43941 0.706479 0.672047 0.610118 0.914619 0.610118H4.91295C5.12455 0.609099 5.32974 0.6827 5.49245 0.817985C5.65515 0.953269 5.76497 1.14158 5.80258 1.34981L6.70221 5.90791H23.0854C23.2192 5.90739 23.3515 5.93673 23.4725 5.99379C23.5935 6.05086 23.7003 6.13421 23.7851 6.23777C23.8667 6.3431 23.9264 6.46368 23.9608 6.59243C23.9951 6.72117 24.0033 6.85548 23.985 6.98746L22.3657 15.8738C22.2431 16.5599 21.8906 17.1839 21.3661 17.643C20.8395 18.1045 20.1566 18.3476 19.4569 18.3227H9.601ZM7.05206 7.72715L8.53144 15.5339C8.58438 15.8098 8.72876 16.0598 8.94127 16.2436C9.13832 16.407 9.38504 16.4987 9.64098 16.5035H19.4569C19.588 16.5096 19.7191 16.4897 19.8426 16.4451C19.9661 16.4005 20.0796 16.3321 20.1766 16.2436C20.3891 16.0598 20.5335 15.8098 20.5864 15.5339L21.9958 7.72715H7.05206Z" fill="black"/>
<path d="M9.06161 23.7214C9.26893 23.723 9.47161 23.6601 9.64161 23.5414C9.81491 23.4264 9.95054 23.263 10.0316 23.0714C10.1095 22.8813 10.127 22.6718 10.0816 22.4714C10.0466 22.2667 9.94876 22.078 9.80161 21.9314C9.66469 21.7677 9.47897 21.6521 9.27161 21.6014C9.06681 21.5609 8.8546 21.5818 8.66161 21.6614C8.4718 21.741 8.31116 21.8772 8.20161 22.0514C8.08294 22.2214 8.02004 22.4241 8.02161 22.6314C8.01939 22.7695 8.04579 22.9065 8.09915 23.0339C8.1525 23.1613 8.23165 23.2762 8.33161 23.3714C8.42217 23.4774 8.53389 23.5633 8.65961 23.6236C8.78533 23.6839 8.92226 23.7172 9.06161 23.7214Z" stroke="black" stroke-width="1.79925" stroke-linecap="round" stroke-linejoin="round"/>
<path d="M20.5179 23.7213C20.7252 23.7229 20.9279 23.66 21.0979 23.5413C21.267 23.4247 21.3986 23.2616 21.4767 23.0716C21.5548 22.8816 21.5761 22.6731 21.5379 22.4713C21.4982 22.2682 21.401 22.0807 21.2579 21.9313C21.1156 21.7789 20.9292 21.6748 20.7247 21.6335C20.5203 21.5923 20.3082 21.616 20.1179 21.7013C19.9278 21.7848 19.765 21.9199 19.6479 22.0913C19.5179 22.2939 19.4601 22.5343 19.4837 22.7739C19.5073 23.0134 19.6109 23.2379 19.7779 23.4113C19.8731 23.5112 19.9881 23.5904 20.1154 23.6437C20.2428 23.6971 20.3798 23.7235 20.5179 23.7213Z" stroke="black" stroke-width="1.79925" stroke-linecap="round" stroke-linejoin="round"/>
</g>
<defs>
<clipPath id="clip0_380_37">
<rect width="23.99" height="24" fill="white" transform="translate(0.00585938 0.620117)"/>
</clipPath>
</defs>
</svg>
